<?xml version="1.0" encoding="utf-8"?>
<!-- Generator: Adobe Illustrator 21.1.0, SVG Export Plug-In . SVG Version: 6.00 Build 0)  -->
<svg version="1.1" id="Layer_1" xmlns="http://www.w3.org/2000/svg" xmlns:xlink="http://www.w3.org/1999/xlink" x="0px" y="0px"
	 viewBox="0 0 585 319" style="enable-background:new 0 0 585 319;" xml:space="preserve">
	<style type="text/css">
		.st0{fill:none;}
		.st1{fill:#FEDC32;}
	</style>
	<title>The 815 Text copy</title>
	<path class="st0" d="M-14,383.5V-92h605.7v475.5H-14z M5,210.7c0.6,7,0.7,14.1,1.9,21.1C8,238.1,9,245,12.1,250.5
		c5.2,9.3,11.8,17.8,20.5,24.4c7.6,5.9,16.8,9.3,26.5,9.5c13.8,0.3,26.2-4.2,38.4-9.5c15.1-6.6,26.3-18,35.5-31.6
		c2.8-4.1,5.5-8.4,5.7-13.5c0.6-13.1-0.2-26-4.5-38.8c-5.8-17.2-14.1-33.5-24.8-48.2c-11.9-16.4-21.6-33.3-26.2-53.2
		c-2.5-11-4.2-21.9-1-32.8c2.6-8.8,6.5-17.3,9.9-25.9c1-2.5,2.2-5,3-7.5c0.9-3-0.2-5.5-3.2-6.1c-3.1-0.8-6.3-0.8-9.4-0.1
		c-3.8,1.2-7.5,3-10.8,5.3c-12.9,8.9-21.9,21.6-32,33.3c-5.2,6-9.2,13-13.5,19.7C24,78.6,22.2,82,21,85.6c-1.8,5.9-3,12.1-4.3,18.2
		c-1.6,6.4-1.1,13.2,1.5,19.3c6.5,15.5,17.8,26.4,33,33.4c5.5,2.5,10.9,5.2,16.3,8c8.6,4.5,16.6,19.4,13.7,30
		c-2.8,10.2-11.6,17.5-21.7,16c-5.1-0.9-10-2.3-14.8-4.1c-8.1-3-13.7-8.4-16.3-17c-1.3-4-3.2-7.8-5.5-11.4c-2.5-4-6.2-4.1-9.1-0.3
		c-1.9,2.3-3.3,4.8-4.2,7.6C6.9,193.4,4.6,201.8,5,210.7L5,210.7z M274.7,249.4c-1.9-11.7-5.9-21.4-16.6-27.1
		c-6.4-3.4-6.6-6.4-2.4-12c2.6-3.4,4.9-7.2,6.6-11.1c2.3-5.7,4.3-11.5,5.9-17.4c0.9-3.2,0.8-6.6,1.2-9.9c1.6-11.1-0.1-22.5-4.9-32.7
		c-3.1-6.6-8.4-9.6-15.3-10.8c-10.8-1.9-21.1,0.2-31.1,3.8c-16.6,6-29.6,17.4-42.6,28.7c-6.5,5.6-6.6,8.3-3.2,16.3
		c3.9,9.4,8.4,18.6,11.4,28.3c2,6.6,2.4,13.8,2.6,20.8c0.1,5.1-1.2,10.2-1.9,15.3c-1.4,10.3-3,20.5-4.4,30.8c-0.2,2.7-0.2,5.5,0,8.2
		c14.5-4.7,27-12.4,40.3-19.4c-1.8-2.6-3.3-4.8-4.8-7.1c-2.2-3.5-3.7-7.1-3.3-11.4c1.4-14.4,14.2-18.7,25.9-16.3
		c8.8,1.8,12.6,9.1,15,17c1,3.1,1.3,6.4,2,9.9L274.7,249.4z M170.5,121c1.1,0,2.5,0.1,3.9,0c8.6-0.4,17.2-1.4,24.3-7
		c4.8-3.7,9.2-7.8,13.2-12.3c10.6-11.8,14.9-26.1,12.4-41.5c-3.6-21.1-14.9-36.9-35.5-45c-8.2-3.3-16.6-5.3-25.4-3.8
		c-12.1,2-23.3,7.7-32.1,16.4c-13.5,13.3-17.4,29.8-14.7,48C120.6,103.8,148.9,122.4,170.5,121z M291.5,64.4
		c-1.8,0.4-3.8,0.4-5.5,1.1c-1.9,0.9-3.5,2.4-5.2,3.6c-2.1,1.7-5.2,1.7-7.2-0.2c-3.6-2.8-5.7-7-6-11.5c-0.9-11,10.9-20.7,21.6-18
		c2.9,0.8,5.8,1.7,8.7,2.4c2.4,0.5,5,1.1,7.2-0.8c7.2-6,8.2-16.7,2.2-23.9c-0.7-0.8-1.5-1.6-2.3-2.3c-3.9-3.3-8.6-4.3-13.1-5.8
		c-9-3-18.1-5.5-27.6-3.4c-6.1,1.4-12.1,3.6-18.1,5.6c-4.8,1.6-7.9,5.1-10.4,9.3c-1.4,2.4-1.6,5.3-0.5,7.9c1.6,4.4,3,8.8,4.7,13.1
		c6,15,9.5,30.4,8.2,46.6c-0.1,1.5,0,3,0.4,4.5c1.8,6.5,7,8.9,13,10.4c10.4,2.5,21,3.5,31.2,6.8c9.3,3,17.7,0.5,21.9-5.8
		c3.5-5.5,5.5-11.8,5.7-18.2c0.3-5.4-4.3-8.8-9.5-7.1c-3.8,1.2-7.3,2.8-10.2,6c-5.2,6-13.1,7.6-18.8,4.5c-6.3-3.4-6.6-7.6-0.9-11.7
		c2.6-1.9,5.4-3.6,7.9-5.6C290.9,70.2,292.8,68.4,291.5,64.4L291.5,64.4z M323.2,216.9c0.3,1.6,0.6,2.7,0.8,3.8
		c1.8,10.3,6.8,18.1,16.4,22.9c8.5,4.3,17.6,4.9,26.8,4c6.3-0.6,10.5-4.2,11.5-10.6c1.1-6.8,2.2-13.7,2.3-20.6
		c0.3-13.4-5.6-21.5-18-26.4c-8.8-3.5-17.9-3.3-27.1-3c-6.3,0.2-9.5-4-7.5-10c0.8-2.7,3-4.7,5.8-5.3c2.6-0.6,3.8,1.5,5.5,2.9
		s4.1,3.3,6.3,3.5c5.6,0.5,11.3,0.3,16.9,0.3c0.2,0,0.5-0.4,0.7-0.5c-1.2-8.6-11.9-16.6-20.3-15.2c-1.2,0.2-2.4,0.4-3.6,0.5
		c-11.5,1.7-20.8,7.4-28.2,16.1c-0.7,0.8-1.3,1.8-1.6,2.9c-1.9,5.6-1.5,11.2,2.4,15.7c3.8,4.3,9.3,4.3,14.6,4s10.8-1.2,16.2-1.2
		c5.1-0.1,10.1,1.5,14.2,4.4c3.2,2.4,4.5,6.7,3.2,10.5c-1.4,4.1-5.7,7.4-9.5,7.4c-3.2,0-5.6-2.4-7.1-7.2c-0.5-2-0.8-4-1.1-6
		L323.2,216.9z M505,246.4l0.8,0.3c0.3,0.3,0.6,0.6,0.9,0.8c7.6,2.8,15.7,4,23.7,3.4c1.1-0.1,2.4-1.5,2.9-2.6
		c0.6-1.5,0.9-3.1,0.9-4.7c-0.1-3.7-0.5-7.4-0.7-11.2c-0.1-1.8,0.2-3.4,2.5-4.1c3.7,0.8,4.7,4,5.9,6.9c2.1,5.2,4.1,10.5,6.2,15.7
		c1.2,3.3,4,5.8,7.4,6.5c7,1.6,12-0.5,16.4-7.1c3.5-5.4,5.9-11.5,7-17.9c1.5-7.5,2.2-15-0.7-22.4c-0.8-2.3-2.3-4.4-4.2-6
		c-5-3.4-11-4-16.8-5.4c-0.4,3.5-0.7,6.8-1.3,9.9c-1,5.3-2.6,10.2-8.8,12c-0.3-0.7-0.5-1.4-0.7-2.1c-0.3-4.6-2.7-8.1-5.1-11.8
		c-3-4.6-6.9-7.9-12.3-9c-3.4-0.7-6.8-1.8-10.3-2.2c-4-0.4-8.1-0.1-12.9-0.1C512,213,509.1,229.7,505,246.4L505,246.4z M390.2,246.1
		c1.4,0.5,2.8,0.8,4.3,1c6.8,0.3,13.7,0.7,20.5,0.8c6.3,0.1,11.4-2.5,14.8-7.9c2.2-3.5,4.2-7.1,5.8-10.9c6.4-16,7-32.2,2.2-48.8
		c-3.4-11.8-11.1-17.8-22.8-19.4c-6.2-0.9-12.4-1.4-18.7-1.5c-5.1,0-10.1,0.9-15.5,1.5c0.6,1.5,0.9,2.5,1.3,3.4
		c4.6,12.9,11,25.3,12.6,39.3c1.1,9.8,2.2,19.5-0.5,29.1C393,237.1,391.6,241.3,390.2,246.1L390.2,246.1z M284.2,167.5
		c-1.1,3.7-1.8,6.6-2.8,9.4c-3.1,8.5-3,17-1,25.6s4.6,17.1,6.9,25.6c1.9,7.3,3.6,14.6,5.3,21.8h23.1c-0.2-1.2-0.5-2.3-0.9-3.5
		c-0.6-1.6-1.4-3.2-2.3-4.6c-7.7-11.5-12.3-24.4-17-37.3c-2.3-6.2-3.4-12.6-2.2-19.3c0.8-4.3,1.1-8.8,1.7-13.7L284.2,167.5z
		M474.9,233.8c5.5,1,9.9-2.3,14.1-5.8c6.5-5.3,9.4-12.1,6.9-20.4c-3.5-12-16-18.9-28-15.5c-4.2,1.2-7.9,3.6-10.8,6.9
		c-6,6.6-7.8,14.3-4.1,22.6C457,230.9,464.8,234,474.9,233.8L474.9,233.8z M381.5,282.5c1.5-0.8,3.1-1.6,4.7-2.2
		c4.6-1.4,7.2,0.2,7.5,4.9c0.3,5.7,0.1,11.5,0.1,17.3l-3.1,0.8v2.6h12.8l-0.2-2.7l-3.4-0.8c0-1.8,0-3.6,0-5.4c-0.1-5,0-10.1-0.5-15.1
		c-0.5-4.6-3.1-6.8-7.6-6.3c-3.5,0.4-7,2-10.8,3.1V262l-9.9,1.2l0.5,2.5l3.7,0.8v35.9l-2.7,0.8v2.6H385l-0.3-2.6l-3.2-0.8
		L381.5,282.5z M473.7,284.3c1.5-1.4,2.9-2.9,4.2-4.5c3.9-5.4,2-11.7-4.5-13.3c-3.3-0.8-6.7-0.8-10,0c-7.9,2.2-9.7,10.6-3.9,16.4
		c0.9,0.9,1.9,1.7,2.9,2.6c-1.7,1.2-3.3,2.5-4.8,3.9c-4.4,4.6-3.6,11.5,1.8,14.5c5.9,3.3,12,3.3,17.8-0.2s6.4-10.5,1.6-15.2
		C477.1,286.9,475.4,285.6,473.7,284.3L473.7,284.3z M368.9,280.5l-0.8-13.8h-32.7l-0.8,13.8h3.7l2-10.5h8.2v32.4l-6.4,0.9v2.6h20.1
		l-0.3-2.6l-6.8-0.9V270h7.9l2,10.6L368.9,280.5z M513,314c3-0.1,6-0.3,9-0.7c7.1-1.3,12.7-6.5,13.9-12.7c1.7-8.5-4.1-14.8-12.5-13.4
		c-1.8,0.3-3.6,0.9-5.8,1.4l2.1-11.7h13.7l1-5.2h-19c-0.8,6.7-1.6,12.9-2.2,19.1c-0.1,0.7,0.7,1.4,1.1,1.9c1.8-0.7,3.7-1.2,5.6-1.7
		c5-0.9,8.6,1.4,9.4,5.7c0.8,4.7-1.1,9.4-5.4,11.5c-2.5,1.2-5.5,1.5-8.3,2.2c-0.8,0.1-1.6,0.2-2.4,0.3L513,314z M431,291.5
		c2.5-7.4-0.7-14.4-7-15.8c-5.8-1.3-11.8,1.4-14.7,6.6c-1.8,3.5-2.5,7.5-2,11.4c0.5,5.3,2.5,9.9,7.9,11.9c5.8,2.2,11,0.8,15.9-3.1
		l-1-2.2c-11.8,2.9-17,0.1-16.2-8.9H431z M291.5,154.9c6.1,0,12.2-5.5,12.1-10.8c-0.1-6-5.7-11-12.2-11c-5.1,0-9.9,5.6-9.9,11.4
		C281.4,150,285.8,154.7,291.5,154.9z M500.9,301.8v-29.5l-3.7-0.5l0.1,0.5l-10,4.8l0.6,2.9l6.6-1.3v23l-6.1,0.6v2.8h18.7l-0.4-2.8
		L500.9,301.8z M312.9,288.3c-1.2,0-2.1-0.1-3.1,0c-3.6,0.2-6.7,2.7-7.7,6.2c-1.1,3.8-0.9,7.5,2.2,10.3c2.7,2.4,5.8,1.7,8.6,0.4
		c1.6,0.5,3.3,0.7,5,0.6c0.2,0,0.4-0.6,0.6-1l-1.9-1.5V281c-2.4-0.1-4.7-0.8-6.8,1.5l3.1,0.9L312.9,288.3z M293.6,290.8v12.8
		l-1.8,2.2h7.8l0.2-0.6l-2.3-1.8c0-3.3,0.2-6.7,0-10.1c-0.3-4.1-2.8-5.7-6.7-4.4c-1.3,0.5-2.6,1-3.8,1.7l-1.3-2.1l-5.1,1l2.7,3.3
		v10.7l-2.3,2.4h8.6l-2.5-2.3v-11.4L293.6,290.8z M273.6,290.8l0.4,4.2c-2.4,0.5-4.8,1.2-7.1,2.1c-2.3,0.9-3.5,3.4-2.7,5.8
		c0.8,2.7,2.8,3.6,5.4,3.4c1.5-0.3,2.9-0.7,4.2-1.3c1.5,0.7,3.2,1,4.9,0.9c0.2,0,0.4-0.6,0.8-1.1l-2-1.3c0-3.3,0.1-6.7,0-10
		s-1.7-5.2-5.1-5.1c-2.3,0.2-4.5,0.8-6.6,1.7c-0.4,0.1-0.5,1.2-0.6,1.8L273.6,290.8z"/>
	<path class="st1" d="M5,210.7c-0.4-8.9,1.9-17.2,4.4-25.5c1-2.8,2.4-5.3,4.3-7.6c2.9-3.8,6.6-3.7,9.1,0.3c2.3,3.5,4.2,7.4,5.5,11.4
		c2.6,8.6,8.2,14,16.3,17c4.8,1.9,9.7,3.3,14.8,4.1c10.2,1.5,18.9-5.7,21.7-16c2.9-10.6-5-25.5-13.7-30c-5.3-2.8-10.8-5.4-16.3-8
		c-15.2-7-26.4-17.9-33-33.4c-2.5-6.1-3-12.9-1.5-19.3c1.3-6.1,2.5-12.2,4.3-18.2c1.3-3.6,3-7,5.2-10.1c4.3-6.7,8.3-13.7,13.5-19.7
		c10-11.7,19.1-24.4,32-33.3c3.3-2.3,6.9-4.1,10.8-5.3c3.1-0.7,6.3-0.7,9.4,0.1c3,0.6,4.1,3.1,3.2,6.1c-0.8,2.6-2,5-3,7.5
		c-3.4,8.6-7.3,17.1-9.9,25.9c-3.2,10.9-1.5,21.8,1,32.8c4.6,19.9,14.4,36.8,26.2,53.2c10.7,14.7,19,31,24.8,48.2
		c4.3,12.8,5.1,25.6,4.5,38.8c-0.2,5.1-2.9,9.4-5.7,13.5c-9.1,13.5-20.4,24.9-35.5,31.6c-12.2,5.3-24.6,9.8-38.4,9.5
		c-9.6-0.2-18.9-3.6-26.5-9.5c-8.7-6.5-15.3-15.1-20.5-24.4C9,245,7.9,238.2,6.9,231.8C5.7,224.8,5.6,217.7,5,210.7z"/>
	<path class="st1" d="M274.6,249.4l-19.7,4c-0.7-3.5-1.1-6.8-2-9.9c-2.4-7.9-6.2-15.2-15-17c-11.7-2.4-24.6,1.9-25.9,16.3
		c-0.4,4.2,1.1,7.9,3.3,11.4c1.5,2.3,3,4.5,4.8,7.1c-13.2,7-25.8,14.7-40.3,19.4c-0.2-2.7-0.2-5.5,0-8.2c1.4-10.3,2.9-20.5,4.4-30.8
		c0.7-5.1,2-10.2,1.9-15.3c-0.2-7-0.5-14.2-2.6-20.8c-3-9.7-7.5-18.9-11.4-28.3c-3.4-8-3.3-10.7,3.2-16.3
		c13-11.2,26.1-22.7,42.6-28.7c10-3.6,20.3-5.7,31.1-3.8c6.9,1.2,12.1,4.2,15.3,10.8c4.8,10.2,6.5,21.5,4.9,32.7
		c-0.4,3.3-0.3,6.7-1.2,9.9c-1.6,5.9-3.6,11.7-5.9,17.4c-1.8,3.9-4,7.7-6.6,11.1c-4.2,5.7-4,8.6,2.4,12
		C268.8,228.1,272.8,237.7,274.6,249.4z M202.8,211.1c5.6,0.6,9.1-0.1,13.3-2.5c3.7-2.2,7.4-4.5,11.1-6.7c7.5-4.5,14.6-9.5,19.9-16.5
		c3.3-4.5,6.9-9.1,8.8-14.3c3-8-0.1-15.7-4.4-22.6c-1-1.5-2.6-2.5-4.4-2.8c-8-0.5-16.2-1.2-23.7,2.6c-6.4,3.3-12.7,6.7-18.8,10.4
		c-8.6,5.3-10.5,10.2-8.2,20.1c1.5,6.6,3.1,13.1,4.5,19.7C201.6,202.6,202.1,206.8,202.8,211.1z"/>
	<path class="st1" d="M170.5,121c-21.6,1.4-49.8-17.2-53.9-45.2c-2.7-18.2,1.2-34.7,14.7-48c8.8-8.6,20-14.4,32.1-16.4
		c8.7-1.5,17.1,0.6,25.4,3.8c20.6,8.2,31.9,23.9,35.5,45c2.6,15.4-1.8,29.7-12.4,41.5c-4.1,4.5-8.5,8.6-13.2,12.3
		c-7,5.6-15.6,6.5-24.3,7C173,121.1,171.5,121,170.5,121z M170.3,37.3C152.5,36.3,139,52,139,65.8c0,18.5,12.4,31.7,30.6,32.4
		c15.4,0.6,30.1-13.8,30.5-29.7C200.5,51.3,187.6,37.7,170.3,37.3L170.3,37.3z"/>
	<path class="st1" d="M291.5,64.4c1.3,4-0.6,5.9-2.6,7.4c-2.5,2-5.3,3.7-7.9,5.6c-5.7,4.1-5.4,8.4,0.9,11.7
		c5.7,3.1,13.6,1.5,18.8-4.5c2.9-3.3,6.4-4.8,10.2-6c5.2-1.7,9.8,1.7,9.5,7.1c-0.2,6.5-2.2,12.8-5.7,18.2c-4.2,6.2-12.6,8.8-21.9,5.8
		c-10.2-3.3-20.9-4.3-31.2-6.8c-5.9-1.4-11.1-3.8-13-10.4c-0.4-1.5-0.5-3-0.4-4.5c1.2-16.2-2.3-31.6-8.2-46.6
		c-1.7-4.3-3.1-8.7-4.7-13.1c-1.1-2.6-0.9-5.5,0.5-7.9c2.5-4.1,5.6-7.7,10.4-9.3c6-2,11.9-4.3,18.1-5.6c9.5-2.1,18.6,0.4,27.6,3.4
		c4.5,1.5,9.2,2.5,13.1,5.8c7.3,5.9,8.4,16.6,2.4,23.9c-0.7,0.8-1.5,1.6-2.3,2.3c-2.2,1.9-4.8,1.3-7.2,0.8c-2.9-0.6-5.8-1.6-8.7-2.4
		c-10.7-2.8-22.5,7-21.6,18c0.3,4.5,2.4,8.7,6,11.5c2,1.9,5.1,1.9,7.2,0.2c1.7-1.2,3.3-2.8,5.2-3.6C287.7,64.8,289.7,64.7,291.5,64.4
		z"/>
	<path class="st1" d="M323.3,216.9l19.6-7.1c0.3,2,0.6,4,1.1,6c1.5,4.8,3.9,7.2,7.1,7.2c3.8,0,8-3.3,9.5-7.4c1.3-3.8,0-8.1-3.2-10.5
		c-4.1-2.9-9.1-4.5-14.2-4.4c-5.4-0.1-10.8,0.8-16.2,1.2s-10.8,0.4-14.6-4c-3.9-4.5-4.2-10.1-2.4-15.7c0.4-1.1,0.9-2,1.6-2.9
		c7.5-8.8,16.7-14.4,28.2-16.1c1.2-0.2,2.4-0.4,3.6-0.5c8.4-1.4,19.1,6.6,20.3,15.2c-0.2,0.2-0.4,0.5-0.7,0.5
		c-5.6,0-11.3,0.2-16.9-0.3c-2.2-0.2-4.5-2-6.3-3.5s-2.9-3.5-5.5-2.9c-2.7,0.6-4.9,2.7-5.8,5.3c-2,6,1.2,10.2,7.5,10
		c9.2-0.3,18.3-0.5,27.1,3c12.4,5,18.3,13,18,26.4c-0.1,6.9-1.3,13.8-2.3,20.6c-1,6.4-5.2,10-11.5,10.6c-9.2,0.9-18.3,0.2-26.8-4
		c-9.5-4.8-14.6-12.6-16.4-22.9C323.8,219.6,323.6,218.6,323.3,216.9z"/>
	<path class="st1" d="M505.1,246.4c4-16.7,7-33.5,0.8-51c4.8,0,8.9-0.3,12.9,0.1c3.5,0.3,6.9,1.4,10.3,2.2c5.5,1.2,9.3,4.5,12.3,9
		c2.4,3.6,4.8,7.2,5.1,11.8c0.1,0.7,0.4,1.5,0.7,2.1c6.2-1.8,7.8-6.7,8.8-12c0.6-3.1,0.8-6.4,1.3-9.9c5.8,1.4,11.8,2,16.8,5.4
		c2,1.5,3.5,3.6,4.3,5.9c2.9,7.3,2.2,14.9,0.7,22.4c-1.1,6.4-3.5,12.4-7,17.9c-4.4,6.6-9.5,8.7-16.4,7.1c-3.4-0.8-6.2-3.2-7.4-6.5
		c-2.2-5.2-4.1-10.5-6.2-15.7c-1.2-3-2.2-6.2-5.9-6.9c-2.2,0.6-2.6,2.3-2.5,4.1c0.2,3.7,0.6,7.4,0.7,11.2c0.1,1.6-0.2,3.2-0.9,4.7
		c-0.5,1.1-1.8,2.6-2.9,2.6c-8.1,0.6-16.1-0.6-23.7-3.4c-0.3-0.1-0.6-0.5-0.9-0.8L505.1,246.4z"/>
	<path class="st1" d="M390.2,246.1c1.4-4.8,2.8-9.1,4-13.4c2.7-9.6,1.6-19.4,0.5-29.1c-1.6-13.9-7.9-26.3-12.6-39.3
		c-0.3-0.9-0.7-1.9-1.3-3.4c5.3-0.5,10.4-1.5,15.5-1.5c6.2,0.1,12.5,0.6,18.7,1.5c11.7,1.5,19.4,7.6,22.8,19.4
		c4.8,16.6,4.2,32.8-2.2,48.8c-1.6,3.8-3.6,7.4-5.8,10.9c-3.3,5.4-8.5,8-14.8,7.9c-6.9-0.1-13.7-0.4-20.5-0.8
		C393,246.9,391.6,246.6,390.2,246.1z M410.8,223.8c2.1-0.6,4.1-0.7,5.6-1.6c5.7-3.3,10.5-7.6,13-13.9c1.2-2.8,1.7-5.9,1.3-9
		c-0.9-4.3-2.3-8.5-4.3-12.5c-3.2-6.6-10.4-8.9-17.2-6c-2.9,1.2-4.5,3.3-4.2,6.3c0.2,4.4,0.9,8.8,1.8,13.1c1.6,6.6,4.1,13.1,3,20.1
		C409.5,221.1,410.3,222.2,410.8,223.8L410.8,223.8z"/>
	<path class="st1" d="M284.2,167.5l10.8,4.1c-0.6,5-0.9,9.4-1.7,13.7c-1.2,6.7-0.1,13,2.2,19.3c4.8,12.8,9.3,25.8,17,37.3
		c0.9,1.5,1.7,3,2.3,4.6c0.4,1.1,0.7,2.3,0.9,3.5h-23c-1.8-7.2-3.4-14.6-5.3-21.8c-2.2-8.6-4.8-17-6.9-25.6s-2.1-17.1,1-25.6
		C282.4,174.1,283.1,171.2,284.2,167.5z"/>
	<path class="st1" d="M474.9,233.8c-10.1,0.2-17.9-2.9-22-12.1c-3.7-8.3-1.9-16,4.1-22.6c8.2-9.4,22.5-10.4,31.9-2.2
		c3.3,2.9,5.7,6.6,6.9,10.8c2.5,8.2-0.4,15-6.9,20.4C484.8,231.5,480.4,234.8,474.9,233.8z M463.4,213.2c0.1,5.4,5.6,10.6,11.2,10.6
		c5.2-0.1,9.5-4.4,9.4-9.6c0-0.1,0-0.1,0-0.2c0.1-5.9-4.5-10.7-10.4-10.8c-0.1,0-0.1,0-0.2,0C468.4,203.3,463.3,208.4,463.4,213.2z"
		/>
	<path class="st1" d="M381.5,282.5v19.9l3.2,0.8l0.3,2.6h-12.5v-2.6l2.7-0.8v-35.9l-3.7-0.8l-0.5-2.5l9.9-1.2v16.8
		c3.8-1.2,7.2-2.7,10.8-3.1c4.5-0.5,7.1,1.7,7.6,6.3c0.6,5,0.4,10,0.5,15.1c0,1.8,0,3.6,0,5.4l3.4,0.8l0.2,2.7h-12.8v-2.6l3.1-0.8
		c0-5.8,0.2-11.6-0.1-17.3c-0.2-4.7-2.9-6.3-7.5-4.9C384.6,280.9,383,281.6,381.5,282.5z"/>
	<path class="st1" d="M473.7,284.3c1.8,1.2,3.4,2.6,5.1,4c4.8,4.8,4.2,11.6-1.6,15.2s-11.9,3.5-17.8,0.2c-5.4-3-6.2-9.9-1.8-14.5
		c1.5-1.4,3.1-2.7,4.8-3.9c-0.9-0.8-1.9-1.6-2.9-2.6c-5.8-5.8-3.9-14.2,3.9-16.4c3.3-0.8,6.7-0.8,10,0c6.4,1.7,8.3,7.9,4.5,13.3
		C476.6,281.4,475.2,282.9,473.7,284.3z M465.5,286.9c-4.9,3.3-6.3,7.3-4.4,11.5c1.5,3.3,5.4,4.9,9.5,3.9c2.5-0.4,4.4-2.3,5-4.7
		c0.6-2.2-0.3-4.6-2.2-5.8C470.9,290,468.1,288.5,465.5,286.9L465.5,286.9z M470.1,282.8c4.3-2.8,5.8-7,4-11.1
		c-1.2-2.6-3.3-3.6-6.1-3.6c-2.5,0-4.8,0.7-5.9,3.3c-1.2,2.4-0.5,5.2,1.6,6.8C465.7,279.9,468,281.3,470.1,282.8L470.1,282.8z"/>
	<path class="st1" d="M368.9,280.5h-3.8l-2-10.6h-7.9v32.3l6.8,0.9l0.3,2.6h-20.1v-2.6l6.4-0.9v-32.4h-8.2l-2,10.5h-3.8l0.8-13.8H368
		L368.9,280.5z"/>
	<path class="st1" d="M513,314v-3.2c0.8-0.1,1.6-0.1,2.4-0.3c2.8-0.7,5.8-0.9,8.3-2.2c4.3-2.1,6.2-6.8,5.4-11.5
		c-0.7-4.3-4.4-6.6-9.4-5.7c-1.9,0.4-3.8,1-5.6,1.7c-0.3-0.5-1.1-1.3-1.1-1.9c0.6-6.2,1.4-12.4,2.2-19.1h19l-1,5.2h-13.7l-2.1,11.7
		c2.2-0.5,3.9-1.1,5.8-1.4c8.5-1.3,14.3,4.9,12.5,13.4c-1.3,6.2-6.8,11.4-13.9,12.7C519,313.7,516,313.9,513,314z"/>
	<path class="st1" d="M431,291.5h-17c-0.7,9,4.5,11.8,16.2,8.9l1,2.2c-4.9,3.8-10.1,5.2-15.9,3.1c-5.4-2-7.3-6.6-7.9-11.9
		c-0.5-3.9,0.2-7.9,2-11.4c2.9-5.2,8.9-7.9,14.7-6.6C430.3,277.2,433.5,284.2,431,291.5z M425.4,287.8c0.2-3.4,0.2-6.6-2.7-8.1
		c-1.8-0.8-3.8-0.7-5.6,0.1c-3,1.5-3.3,4.7-3.2,8L425.4,287.8z"/>
	<path class="st1" d="M291.5,154.9c-5.6-0.2-10.1-4.8-10-10.4c0-5.8,4.8-11.4,9.9-11.4c6.5,0,12.1,5,12.2,11
		C303.7,149.3,297.5,154.8,291.5,154.9z"/>
	<path class="st1" d="M500.9,301.8l5.8,0.7l0.4,2.7h-18.7v-2.8l6.1-0.6v-23l-6.6,1.3l-0.6-2.9l10-4.8l-0.1-0.5l3.7,0.5L500.9,301.8z"
		/>
	<path class="st1" d="M312.9,288.3v-4.9l-3.1-0.9c2.2-2.3,4.4-1.6,6.8-1.5v22.3l1.9,1.5c-0.2,0.4-0.4,1-0.6,1c-1.7,0.1-3.4-0.1-5-0.6
		c-2.9,1.3-5.9,2.1-8.6-0.4c-3.1-2.8-3.3-6.5-2.2-10.3c1-3.5,4.1-6,7.7-6.2C310.8,288.2,311.8,288.3,312.9,288.3z M312.9,302.3v-11.1
		c-3.8-1.6-6.4-0.5-7.1,3.2c-0.4,1.8-0.4,3.6-0.1,5.3C306.4,303.7,309.2,304.7,312.9,302.3L312.9,302.3z"/>
	<path class="st1" d="M293.6,290.7l-6.6,1.2v11.4l2.5,2.3h-8.6l2.3-2.4v-10.7l-2.7-3.3l5.1-1l1.3,2.1c1.2-0.6,2.5-1.2,3.8-1.7
		c3.9-1.2,6.5,0.4,6.7,4.4c0.2,3.4,0,6.8,0,10.1l2.3,1.8l-0.2,0.6h-7.8l1.8-2.2L293.6,290.7z"/>
	<path class="st1" d="M273.6,290.8l-8.4,1c0.2-0.5,0.3-1.6,0.6-1.8c2.1-0.9,4.3-1.4,6.6-1.7c3.4-0.1,5,1.7,5.1,5.1s0,6.6,0,10l2,1.3
		c-0.4,0.5-0.6,1.1-0.8,1.1c-1.7,0.1-3.3-0.2-4.9-0.9c-1.4,0.6-2.8,1-4.2,1.3c-2.5,0.3-4.6-0.7-5.4-3.4c-0.8-2.3,0.4-4.9,2.7-5.8
		c2.3-0.9,4.7-1.6,7.1-2.1L273.6,290.8z M274,297.8c-2.4-0.2-4.6,0-5.8,2.3c-0.3,1-0.1,2.1,0.6,2.9c1.8,1.5,3.5,0.5,5.2-0.5V297.8z"
		/>
	<path class="st0" d="M202.8,211.1c-0.7-4.2-1.1-8.4-2-12.6c-1.4-6.6-3-13.1-4.5-19.7c-2.2-9.9-0.4-14.7,8.2-20.1
		c6.1-3.8,12.4-7.1,18.8-10.4c7.5-3.9,15.7-3.1,23.7-2.6c1.8,0.3,3.4,1.3,4.4,2.8c4.3,6.9,7.4,14.6,4.4,22.6
		c-1.9,5.1-5.5,9.8-8.8,14.3c-5.2,7.1-12.4,12-19.9,16.5c-3.7,2.2-7.4,4.5-11.1,6.7C211.9,211,208.4,211.7,202.8,211.1z"/>
	<path class="st0" d="M170.3,37.2c17.2,0.5,30.2,14.1,29.7,31.2c-0.4,15.9-15,30.3-30.5,29.7C151.4,97.5,139,84.2,139,65.8
		C139,52,152.5,36.3,170.3,37.2z"/>
	<path class="st0" d="M410.8,223.7c-0.5-1.6-1.2-2.6-1.1-3.6c1.2-7.1-1.4-13.5-3-20.1c-0.9-4.3-1.6-8.7-1.8-13.1
		c-0.2-3,1.3-5.1,4.2-6.3c6.8-2.8,14.1-0.5,17.2,6c2,4,3.4,8.2,4.3,12.5c0.3,3.1-0.1,6.2-1.3,9c-2.4,6.2-7.3,10.5-13,13.9
		C414.8,223,412.9,223.2,410.8,223.7z"/>
	<path class="st0" d="M463.4,213.2c-0.1-4.7,5.1-9.9,10-10c5.9,0,10.6,4.8,10.6,10.6c0,0.1,0,0.1,0,0.2c0.2,5.2-4,9.6-9.2,9.8
		c-0.1,0-0.1,0-0.2,0C469,223.8,463.5,218.6,463.4,213.2z"/>
	<path class="st0" d="M465.5,286.9c2.6,1.6,5.4,3.1,7.9,4.9c1.9,1.2,2.8,3.6,2.2,5.8c-0.6,2.4-2.5,4.3-5,4.7c-4.1,1-8-0.6-9.5-3.9
		C459.3,294.3,460.7,290.2,465.5,286.9z"/>
	<path class="st0" d="M470.1,282.8c-2.1-1.5-4.4-2.9-6.4-4.6c-2.1-1.6-2.8-4.4-1.6-6.8c1.1-2.6,3.4-3.2,5.9-3.3c2.7,0,4.9,1,6.1,3.6
		C475.9,275.8,474.4,280,470.1,282.8z"/>
	<path class="st0" d="M425.4,287.8h-11.6c-0.1-3.3,0.2-6.5,3.2-8c1.8-0.8,3.8-0.8,5.6-0.1C425.7,281.3,425.6,284.5,425.4,287.8z"/>
	<path class="st0" d="M312.9,302.3c-3.7,2.4-6.5,1.4-7.3-2.5c-0.3-1.8-0.3-3.6,0.1-5.3c0.8-3.7,3.4-4.8,7.1-3.2L312.9,302.3z"/>
	<path class="st0" d="M274,297.7v4.7c-1.7,1.1-3.4,2.1-5.2,0.5c-0.7-0.8-0.9-1.9-0.6-2.9C269.3,297.7,271.6,297.5,274,297.7z"/>
</svg>